<svg width="24" height="24" viewBox="0 0 24 24" fill="none" xmlns="http://www.w3.org/2000/svg">
<g id="HODL">
<path id="Vector" d="M4 18H3V19H4V18Z" fill="black"/>
<path id="Vector_2" d="M5 19H4V20H5V19Z" fill="black"/>
<path id="Vector_3" d="M6 20H5V21H6V20Z" fill="black"/>
<path id="Vector_4" d="M5 4H4V5H5V4Z" fill="black"/>
<path id="Vector_5" d="M3 16H2V18H3V16Z" fill="black"/>
<path id="Vector_6" d="M4 5H3V6H4V5Z" fill="black"/>
<path id="Vector_7" d="M8 21H6V22H8V21Z" fill="black"/>
<path id="Vector_8" d="M2 8H1V16H2V8Z" fill="black"/>
<path id="Vector_9" d="M16 1H8V2H16V1Z" fill="black"/>
<path id="Vector_10" d="M3 6H2V8H3V6Z" fill="black"/>
<path id="Vector_11" d="M16 22H8V23H16V22Z" fill="black"/>
<path id="Vector_12" d="M18 21H16V22H18V21Z" fill="black"/>
<path id="Vector_13" d="M18 2H16V3H18V2Z" fill="black"/>
<path id="Vector_14" d="M6 3H5V4H6V3Z" fill="black"/>
<path id="Vector_15" d="M8 2H6V3H8V2Z" fill="black"/>
<path id="Vector_16" d="M19 3H18V4H19V3Z" fill="black"/>
<path id="Vector_17" d="M19 20H18V21H19V20Z" fill="black"/>
<path id="Vector_18" d="M20 4H19V5H20V4Z" fill="black"/>
<path id="Vector_19" d="M20 19H19V20H20V19Z" fill="black"/>
<path id="Vector_20" d="M22 16H21V18H22V16Z" fill="black"/>
<path id="Vector_21" d="M21 5H20V6H21V5Z" fill="black"/>
<path id="Vector_22" d="M22 6H21V8H22V6Z" fill="black"/>
<path id="Vector_23" d="M21 18H20V19H21V18Z" fill="black"/>
<path id="Vector_24" d="M23 8H22V16H23V8Z" fill="black"/>
<path id="Vector_25" d="M15 19H9V20H15V19Z" fill="black"/>
<path id="Vector_26" d="M22 8V16H21V18H20V19H19V20H18V21H16V22H8V21H6V20H8V19H9V20H15V19H17V18H18V17H19V15H20V9H19V8H20V6H21V8H22Z" fill="#CBA600"/>
<path id="Vector_27" d="M20 9H19V15H20V9Z" fill="black"/>
<path id="Vector_28" d="M20 5V8H19V7H18V6H17V5H15V4H9V5H7V6H6V7H5V9H4V15H5V17H6V18H7V19H8V20H5V19H4V18H3V16H2V8H3V6H4V5H5V4H6V3H8V2H16V3H18V4H19V5H20Z" fill="#FFD100"/>
<path id="Vector_29" d="M19 15H18V17H19V15Z" fill="black"/>
<path id="Vector_30" d="M19 7H18V9H19V7Z" fill="black"/>
<path id="Vector_31" d="M18 17H17V18H18V17Z" fill="black"/>
<path id="Vector_32" d="M18 6H17V7H18V6Z" fill="black"/>
<path id="Vector_33" d="M17 5H15V6H17V5Z" fill="black"/>
<path id="Vector_34" d="M17 18H15V19H17V18Z" fill="black"/>
<path id="Vector_35" d="M15 12H14V14H15V12Z" fill="#CB7419"/>
<path id="Vector_36" d="M15 10H14V11H15V10Z" fill="#CB7419"/>
<path id="Vector_37" d="M15 4H9V5H15V4Z" fill="black"/>
<path id="Vector_38" d="M14 12V16.4H12V13H13V12H14Z" fill="#CB7419"/>
<path id="Vector_39" d="M14.4 10.08H12.96V11.52H14.4V10.08Z" fill="#CB7419"/>
<path id="Vector_40" d="M13 10H10V11H13V10Z" fill="#FFA33E"/>
<path id="Vector_41" d="M19 9V15H18V17H17V18H15V19H9V18H7V17H9V16H11V15H12V16H13V15H14V14H15V12H11.6V11H15V10.24H11.6V9H15V7H16V6H17V7H18V9H19Z" fill="#CB7419"/>
<path id="Vector_42" d="M13 12V13H12V14H10V12H13Z" fill="#FFA33E"/>
<path id="Vector_43" d="M9 5H7V6H9V5Z" fill="black"/>
<path id="Vector_44" d="M9 18H7V19H9V18Z" fill="black"/>
<path id="Vector_45" d="M7 17H6V18H7V17Z" fill="black"/>
<path id="Vector_46" d="M7 6H6V7H7V6Z" fill="black"/>
<path id="Vector_47" d="M6 15H5V17H6V15Z" fill="black"/>
<path id="Vector_48" d="M16 6V7H15V9H13V16H10H9V17H6V15H5V9H6V7H7V6H9V5H15V6H16Z" fill="#F49129"/>
<path id="Vector_49" d="M6 7H5V9H6V7Z" fill="black"/>
<path id="Vector_50" d="M5 9H4V15H5V9Z" fill="black"/>
</g>
</svg>
