<svg width="57" height="57" viewBox="0 0 57 57" fill="none" xmlns="http://www.w3.org/2000/svg">
<rect x="32.0625" y="3.5625" width="7.125" height="3.5625" fill="#202020"/>
<rect x="33.8438" y="5.34375" width="5.34375" height="3.5625" fill="#646874"/>
<rect x="33.8438" y="46.3125" width="1.78125" height="1.78125" fill="#066804"/>
<rect x="33.8438" y="44.5312" width="3.5625" height="1.78125" fill="#066804"/>
<rect x="32.0625" y="42.75" width="5.34375" height="1.78125" fill="#066804"/>
<rect x="30.2812" y="37.4062" width="5.34375" height="5.34375" fill="#066804"/>
<rect x="28.5" y="40.9688" width="1.78125" height="1.78125" fill="#066804"/>
<rect x="23.1562" y="35.625" width="10.6875" height="1.78125" fill="#066804"/>
<rect x="23.1562" y="35.625" width="7.125" height="5.34375" fill="#1EAB1B"/>
<rect width="7.125" height="1.78125" transform="matrix(1 0 0 -1 21.375 42.75)" fill="#1EAB1B"/>
<rect width="5.34375" height="1.78125" transform="matrix(1 0 0 -1 21.375 44.5312)" fill="#1EAB1B"/>
<rect width="1.78125" height="1.78125" transform="matrix(1 0 0 -1 21.375 40.9688)" fill="#1EAB1B"/>
<rect width="1.78125" height="1.78125" transform="matrix(1 0 0 -1 21.375 39.1875)" fill="#149C11"/>
<rect x="30.2812" y="21.375" width="5.34375" height="5.34375" fill="#D41E1E"/>
<rect x="24.9375" y="19.5938" width="3.5625" height="1.78125" fill="#FFFC00"/>
<rect x="32.0625" y="19.5938" width="1.78125" height="1.78125" fill="#FFFC00"/>
<rect x="30.2812" y="26.7188" width="10.6875" height="5.34375" fill="#FFFC00"/>
<rect x="26.7188" y="26.7188" width="3.5625" height="3.5625" fill="#FFFC00"/>
<rect x="19.5938" y="24.9375" width="3.5625" height="7.125" fill="#FFFC00"/>
<rect x="21.375" y="23.1562" width="1.78125" height="1.78125" fill="#FFFC00"/>
<rect x="24.9375" y="23.1562" width="7.125" height="3.5625" fill="#FFFC00"/>
<rect x="23.1562" y="21.375" width="7.125" height="1.78125" fill="#FFFC00"/>
<rect x="23.1562" y="23.1562" width="1.78125" height="5.34375" fill="#277EFF"/>
<rect x="24.9375" y="33.8438" width="8.90625" height="1.78125" fill="#277EFF"/>
<rect x="30.2812" y="32.0625" width="3.5625" height="1.78125" fill="#277EFF"/>
<rect x="24.9375" y="30.2812" width="5.34375" height="3.5625" fill="#277EFF"/>
<rect x="24.9375" y="26.7188" width="1.78125" height="3.5625" fill="#277EFF"/>
<rect x="19.5938" y="39.1875" width="1.78125" height="5.34375" fill="#BB7547"/>
<rect x="35.625" y="46.3125" width="3.5625" height="1.78125" fill="#BB7547"/>
<rect x="33.8438" y="48.0938" width="1.78125" height="1.78125" fill="#BB7547"/>
<rect x="39.1875" y="51.6562" width="3.5625" height="5.34375" fill="#5F2800"/>
<rect x="12.4688" y="37.4062" width="5.34375" height="5.34375" fill="#5F2800"/>
<rect x="17.8125" y="39.1875" width="1.78125" height="5.34375" fill="#5F2800"/>
<rect x="12.4688" y="42.75" width="1.78125" height="3.5625" fill="#5F2800"/>
<rect x="37.4062" y="51.6562" width="1.78125" height="1.78125" fill="#5F2800"/>
<rect x="42.75" y="51.6562" width="1.78125" height="3.5625" fill="#5F2800"/>
<rect width="3.5625" height="1.78125" transform="matrix(1 0 0 -1 14.25 44.5312)" fill="#07060E"/>
<rect width="1.78125" height="1.78125" transform="matrix(1 0 0 -1 35.625 53.4375)" fill="#07060E"/>
<rect width="1.78125" height="3.5625" transform="matrix(1 0 0 -1 32.0625 48.0938)" fill="#07060E"/>
<rect width="1.78125" height="1.78125" transform="matrix(1 0 0 -1 30.2812 44.5312)" fill="#07060E"/>
<rect width="1.78125" height="3.5625" transform="matrix(1 0 0 -1 37.4062 57)" fill="#07060E"/>
<rect x="40.9688" y="24.9375" width="3.5625" height="5.34375" fill="#E69C69"/>
<rect x="44.5312" y="24.9375" width="1.78125" height="1.78125" fill="#E69C69"/>
<rect x="26.7188" y="12.4688" width="5.34375" height="7.125" fill="#E69C69"/>
<rect x="26.7188" y="12.4688" width="1.78125" height="3.5625" fill="#E69C69"/>
<rect x="24.9375" y="14.25" width="1.78125" height="3.5625" fill="#BB7547"/>
<rect x="23.1562" y="12.4688" width="1.78125" height="3.5625" fill="#E69C69"/>
<rect x="21.375" y="10.6875" width="1.78125" height="5.34375" fill="#202020"/>
<rect x="21.375" y="8.90625" width="1.78125" height="7.125" fill="#D41E1E"/>
<rect x="21.375" y="16.0312" width="3.5625" height="1.78125" fill="#D41E1E"/>
<rect x="26.7188" y="5.34375" width="1.78125" height="3.5625" fill="#343434"/>
<rect x="28.5" y="7.125" width="1.78125" height="1.78125" fill="#343434"/>
<rect x="30.2812" y="8.90625" width="1.78125" height="1.78125" fill="#343434"/>
<rect x="32.0625" y="10.6875" width="1.78125" height="1.78125" fill="#343434"/>
<rect x="19.5938" y="8.90625" width="1.78125" height="3.5625" fill="#D41E1E"/>
<rect x="23.1562" y="8.90625" width="1.78125" height="3.5625" fill="#D41E1E"/>
<rect x="24.9375" y="8.90625" width="1.78125" height="5.34375" fill="#D41E1E"/>
<rect x="24.9375" y="3.5625" width="1.78125" height="1.78125" fill="#202020"/>
<rect x="23.1562" y="1.78125" width="1.78125" height="1.78125" fill="#202020"/>
<rect x="19.5938" y="7.125" width="7.125" height="1.78125" fill="#646874"/>
<rect x="35.625" y="5.34375" width="5.34375" height="3.5625" fill="#343434"/>
<rect x="30.2812" y="7.125" width="3.5625" height="1.78125" fill="#646874"/>
<rect x="33.8438" y="10.6875" width="5.34375" height="1.78125" fill="#202020"/>
<rect x="33.8438" y="12.4688" width="3.5625" height="1.78125" fill="#202020"/>
<rect x="32.0625" y="8.90625" width="10.6875" height="1.78125" fill="#646874"/>
<rect x="21.375" y="5.34375" width="5.34375" height="1.78125" fill="#343434"/>
<rect x="21.375" y="3.5625" width="3.5625" height="1.78125" fill="#343434"/>
<rect x="24.9375" y="1.78125" width="12.4688" height="1.78125" fill="#343434"/>
<rect x="26.7188" y="3.5625" width="5.34375" height="1.78125" fill="#343434"/>
<rect x="28.5" y="5.34375" width="3.5625" height="1.78125" fill="#343434"/>
<rect x="24.9375" y="17.8125" width="1.78125" height="1.78125" fill="#5D2C28"/>
<rect x="30.2812" y="12.4688" width="3.5625" height="3.5625" fill="#E69C69"/>
<rect x="33.8438" y="12.4688" width="1.78125" height="5.34375" fill="#5D2C28"/>
<rect x="32.0625" y="17.8125" width="1.78125" height="1.78125" fill="#5D2C28"/>
<rect x="26.7188" y="10.6875" width="5.34375" height="1.78125" fill="#BB7547"/>
<rect x="26.7188" y="8.90625" width="3.5625" height="1.78125" fill="#BB7547"/>
<rect x="32.0625" y="16.0312" width="1.78125" height="1.78125" fill="#E69C69"/>
<rect x="28.5" y="12.4688" width="1.78125" height="3.5625" fill="#5D2C28"/>
<rect x="28.5" y="19.5938" width="3.5625" height="1.78125" fill="#BB7547"/>
<rect x="23.1562" y="28.5" width="1.78125" height="7.125" fill="#0B62E3"/>
<rect x="35.625" y="49.875" width="5.34375" height="1.78125" fill="#5F2800"/>
<rect x="35.625" y="48.0938" width="3.5625" height="1.78125" fill="#5F2800"/>
</svg>
