<svg width="36" height="37" viewBox="0 0 36 37" fill="none" xmlns="http://www.w3.org/2000/svg">
<path d="M10.5 17H9V18.5H10.5V17Z" fill="#E1BF28"/>
<path d="M27 17H25.5V18.5H27V17Z" fill="#E1BF28"/>
<path d="M30 14H28.5V15.5H30V14Z" fill="#FFFC00"/>
<path d="M27 15.5H25.5V17H27V15.5Z" fill="#FFFC00"/>
<path d="M25.5 17H24V18.5H25.5V17Z" fill="#FFFC00"/>
<path d="M7.5 14H6V15.5H7.5V14Z" fill="#FFFC00"/>
<path d="M10.5 15.5H9V17H10.5V15.5Z" fill="#FFFC00"/>
<path d="M12 17H10.5V18.5H12V17Z" fill="#FFFC00"/>
<path d="M9 15.5H7.5V18.5H9V15.5Z" fill="#A6A6A6"/>
<path d="M33 3.5V2H3V3.5H1.5V33.5H3V35H33V33.5H34.5V3.5H33ZM33 17H31.5V18.5H30V20H27V21.5H24V24.5H25.5V27.5H27V30.5H28.5V33.5H7.5V30.5H9V27.5H10.5V24.5H12V21.5H9V20H6V18.5H4.5V17H3V15.5H4.5V14H7.5V12.5H10.5V11H12V9.5H13.5V8H22.5V9.5H24V11H25.5V12.5H28.5V14H31.5V15.5H33V17Z" fill="black"/>
<path d="M19.5 18.5H16.5V20H19.5V18.5Z" fill="#E1BF28"/>
<path d="M28.5 15.5H27V18.5H28.5V15.5Z" fill="#A6A6A6"/>
<path d="M25.5 18.5V20H22.5V21.5H13.5V20H10.5V18.5H12V17H16.5V20H19.5V17H24V18.5H25.5Z" fill="#A6A6A6"/>
<path d="M19.5 17H16.5V18.5H19.5V17Z" fill="#FFFC00"/>
<path d="M25.5 32V33.5H10.5V32H12V30.5H13.5V27.5H15V26H16.5V24.5H19.5V26H21V27.5H22.5V30.5H24V32H25.5Z" fill="#FFFC00"/>
<path d="M28.5 30.5V33.5H25.5V32H24V30.5H22.5V27.5H21V26H19.5V24.5H16.5V26H15V27.5H13.5V30.5H12V32H10.5V33.5H7.5V30.5H9V27.5H10.5V24.5H12V23H24V24.5H25.5V27.5H27V30.5H28.5Z" fill="#E1BF28"/>
<path d="M25.5 15.5H10.5V17H25.5V15.5Z" fill="#6D6D6D"/>
<path d="M28.5 12.5H25.5V15.5H28.5V12.5Z" fill="#6D6D6D"/>
<path d="M33 15.5V17H31.5V18.5H30V20H27V21.5H24V23H12V21.5H9V20H6V18.5H4.5V17H3V15.5H4.5V14H6V15.5H7.5V18.5H10.5V20H13.5V21.5H22.5V20H25.5V18.5H28.5V15.5H30V14H31.5V15.5H33Z" fill="#6D6D6D"/>
<path d="M10.5 12.5H7.5V15.5H10.5V12.5Z" fill="#6D6D6D"/>
<path d="M18 11V14H16.5V15.5H10.5V11H12V9.5H13.5V8H15V9.5H16.5V11H18Z" fill="#7DC2F9"/>
<path d="M22.5 12.5V14H19.5V15.5H16.5V14H18V11H16.5V9.5H15V8H19.5V9.5H21V12.5H22.5Z" fill="#3F9EEC"/>
<path d="M25.5 11V15.5H19.5V14H22.5V12.5H21V9.5H19.5V8H22.5V9.5H24V11H25.5Z" fill="#2B6DA3"/>
</svg>
